<svg width="33" height="30" viewBox="0 0 33 30" fill="none" xmlns="http://www.w3.org/2000/svg">
<ellipse cx="16.5" cy="15" rx="16.5" ry="15" fill="#AAA6A6" fill-opacity="0.5"/>
<path d="M23.9971 14.4219C23.9382 14.2839 23.8498 14.1579 23.7371 14.051L17.5471 8.43059C17.4316 8.32578 17.2946 8.24264 17.1438 8.18592C16.993 8.1292 16.8313 8.10001 16.6681 8.10001C16.3384 8.10001 16.0222 8.21892 15.7891 8.43059C15.6737 8.53539 15.5821 8.65982 15.5196 8.79675C15.4571 8.93369 15.425 9.08046 15.425 9.22868C15.425 9.52802 15.556 9.8151 15.7891 10.0268L19.8745 13.725H10.478C10.1497 13.725 9.83477 13.8434 9.6026 14.0542C9.37042 14.265 9.23999 14.5509 9.23999 14.849C9.23999 15.1472 9.37042 15.4331 9.6026 15.6439C9.83477 15.8547 10.1497 15.9731 10.478 15.9731H19.8745L15.7891 19.6713C15.673 19.7758 15.5809 19.9001 15.5181 20.0371C15.4552 20.1741 15.4229 20.321 15.4229 20.4694C15.4229 20.6178 15.4552 20.7647 15.5181 20.9017C15.5809 21.0387 15.673 21.163 15.7891 21.2675C15.9042 21.3729 16.0411 21.4565 16.192 21.5136C16.3428 21.5706 16.5046 21.6 16.6681 21.6C16.8315 21.6 16.9933 21.5706 17.1442 21.5136C17.2951 21.4565 17.432 21.3729 17.5471 21.2675L23.7371 15.6471C23.8498 15.5402 23.9382 15.4142 23.9971 15.2762C24.1209 15.0025 24.1209 14.6956 23.9971 14.4219Z" fill="#5E5353"/>
</svg>
